{
  "accessors": [
    {
      "bufferView": 2,
      "componentType": 5126,
      "count": 3186,
      "max": [
        1.9921367168426514,
        1.5490400791168213,
        0.3588700294494629
      ],
      "min": [
        -0.3441847562789917,
        -0.6939331889152527,
        -8.20034408569336
      ],
      "type": "VEC3"
    },
    {
      "bufferView": 2,
      "byteOffset": 38232,
      "componentType": 5126,
      "count": 3186,
      "max": [
        0.9996752738952637,
        1.0,
        0.9997274875640869
      ],
      "min": [
        -0.999896764755249,
        -1.0,
        -0.9997274875640869
      ],
      "type": "VEC3"
    },
    {
      "bufferView": 3,
      "componentType": 5126,
      "count": 3186,
      "max": [
        0.9480559825897217,
        0.9993718266487122,
        0.9996764659881592,
        1.0
      ],
      "min": [
        -0.9481824040412903,
        -0.9993381500244141,
        -0.9996992945671082,
        -1.0
      ],
      "type": "VEC4"
    },
    {
      "bufferView": 1,
      "componentType": 5126,
      "count": 3186,
      "max": [
        0.9440411329269409,
        0.9459110498428345
      ],
      "min": [
        0.6685141921043396,
        0.7135488390922546
      ],
      "type": "VEC2"
    },
    {
      "bufferView": 1,
      "byteOffset": 25488,
      "componentType": 5126,
      "count": 3186,
      "max": [
        0.9440411329269409,
        0.9459110498428345
      ],
      "min": [
        0.6685141921043396,
        0.7135488390922546
      ],
      "type": "VEC2"
    },
    {
      "bufferView": 0,
      "componentType": 5125,
      "count": 16596,
      "type": "SCALAR"
    },
    {
      "bufferView": 2,
      "byteOffset": 76464,
      "componentType": 5126,
      "count": 154,
      "max": [
        1.4142365455627441,
        0.59929358959198,
        -8.013599395751953
      ],
      "min": [
        -0.3180891275405884,
        0.23724249005317688,
        -28.4306640625
      ],
      "type": "VEC3"
    },
    {
      "bufferView": 2,
      "byteOffset": 78312,
      "componentType": 5126,
      "count": 154,
      "max": [
        0.7956346869468689,
        0.9930238127708435,
        0.9988204836845398
      ],
      "min": [
        -0.7175703048706055,
        -0.9930238127708435,
        -0.9987092614173889
      ],
      "type": "VEC3"
    },
    {
      "bufferView": 1,
      "byteOffset": 50976,
      "componentType": 5126,
      "count": 154,
      "max": [
        1.0000001192092896,
        1.0
      ],
      "min": [
        0.0,
        0.0
      ],
      "type": "VEC2"
    },
    {
      "bufferView": 0,
      "byteOffset": 66384,
      "componentType": 5125,
      "count": 696,
      "type": "SCALAR"
    },
    {
      "bufferView": 2,
      "byteOffset": 80160,
      "componentType": 5126,
      "count": 94,
      "max": [
        1.4173732995986938,
        0.5507825613021851,
        -8.920780181884766
      ],
      "min": [
        -0.2871814966201782,
        0.2857537865638733,
        -28.41994857788086
      ],
      "type": "VEC3"
    },
    {
      "bufferView": 2,
      "byteOffset": 81288,
      "componentType": 5126,
      "count": 94,
      "max": [
        0.7721120715141296,
        0.9922230839729309,
        0.00833169836550951
      ],
      "min": [
        0.07159730792045593,
        -0.9922230839729309,
        -0.9914423823356628
      ],
      "type": "VEC3"
    },
    {
      "bufferView": 1,
      "byteOffset": 52208,
      "componentType": 5126,
      "count": 94,
      "max": [
        0.7985528111457825,
        1.0
      ],
      "min": [
        0.0,
        0.4999999403953552
      ],
      "type": "VEC2"
    },
    {
      "bufferView": 0,
      "byteOffset": 69168,
      "componentType": 5125,
      "count": 276,
      "type": "SCALAR"
    },
    {
      "bufferView": 2,
      "byteOffset": 82416,
      "componentType": 5126,
      "count": 86,
      "max": [
        1.4480745792388916,
        0.4391290545463562,
        -8.930915832519531
      ],
      "min": [
        -0.3180891275405884,
        0.39739173650741577,
        -28.4306640625
      ],
      "type": "VEC3"
    },
    {
      "bufferView": 2,
      "byteOffset": 83448,
      "componentType": 5126,
      "count": 86,
      "max": [
        0.8038774132728577,
        0.9692774415016174,
        0.025208907201886177
      ],
      "min": [
        -0.5796797275543213,
        -0.96928471326828,
        -0.8798965215682983
      ],
      "type": "VEC3"
    },
    {
      "bufferView": 1,
      "byteOffset": 52960,
      "componentType": 5126,
      "count": 86,
      "max": [
        0.7873588800430298,
        1.0
      ],
      "min": [
        0.0,
        0.0
      ],
      "type": "VEC2"
    },
    {
      "bufferView": 0,
      "byteOffset": 70272,
      "componentType": 5125,
      "count": 360,
      "type": "SCALAR"
    },
    {
      "bufferView": 2,
      "byteOffset": 84480,
      "componentType": 5126,
      "count": 154,
      "max": [
        1.065865159034729,
        0.5049839019775391,
        29.794109344482422
      ],
      "min": [
        -33.35416030883789,
        0.5049839019775391,
        -27.63507080078125
      ],
      "type": "VEC3"
    },
    {
      "bufferView": 2,
      "byteOffset": 86328,
      "componentType": 5126,
      "count": 154,
      "max": [
        5.374933387258807e-09,
        1.0,
        -0.0
      ],
      "min": [
        5.374933387258807e-09,
        1.0,
        -0.0
      ],
      "type": "VEC3"
    },
    {
      "bufferView": 1,
      "byteOffset": 53648,
      "componentType": 5126,
      "count": 154,
      "max": [
        0.6947681903839111,
        1.0
      ],
      "min": [
        0.20826350152492523,
        0.0
      ],
      "type": "VEC2"
    },
    {
      "bufferView": 0,
      "byteOffset": 71712,
      "componentType": 5125,
      "count": 456,
      "type": "SCALAR"
    }
  ],
  "asset": {
    "extras": {
      "author": "brendan wood (https://sketchfab.com/brendanwood872)",
      "license": "CC-BY-4.0 (http://creativecommons.org/licenses/by/4.0/)",
      "source": "https://sketchfab.com/3d-models/anime-style-katana-4c2e0d004360431f95efa1984ceb52b6",
      "title": "Anime style katana"
    },
    "generator": "Sketchfab-12.66.0",
    "version": "2.0"
  },
  "bufferViews": [
    {
      "buffer": 0,
      "byteLength": 73536,
      "name": "floatBufferViews",
      "target": 34963
    },
    {
      "buffer": 0,
      "byteLength": 54880,
      "byteOffset": 73536,
      "byteStride": 8,
      "name": "floatBufferViews",
      "target": 34962
    },
    {
      "buffer": 0,
      "byteLength": 88176,
      "byteOffset": 128416,
      "byteStride": 12,
      "name": "floatBufferViews",
      "target": 34962
    },
    {
      "buffer": 0,
      "byteLength": 50976,
      "byteOffset": 216592,
      "byteStride": 16,
      "name": "floatBufferViews",
      "target": 34962
    }
  ],
  "buffers": [
    {
      "byteLength": 267568,
      "uri": "scene.bin"
    }
  ],
  "extensionsUsed": [
    "KHR_materials_clearcoat"
  ],
  "images": [
    {
      "uri": "textures/Material.001_baseColor.png"
    },
    {
      "uri": "textures/Material.001_normal.png"
    },
    {
      "uri": "textures/Material.008_baseColor.png"
    }
  ],
  "materials": [
    {
      "doubleSided": true,
      "name": "Material.001",
      "normalTexture": {
        "index": 1,
        "scale": 0.2
      },
      "pbrMetallicRoughness": {
        "baseColorTexture": {
          "index": 0
        },
        "metallicFactor": 0.0,
        "roughnessFactor": 0.5
      }
    },
    {
      "doubleSided": true,
      "name": "Material.003",
      "pbrMetallicRoughness": {
        "baseColorFactor": [
          0.0173876,
          0.0173876,
          0.0173876,
          1.0
        ],
        "metallicFactor": 0.0,
        "roughnessFactor": 0.5
      }
    },
    {
      "doubleSided": true,
      "name": "Material.004",
      "pbrMetallicRoughness": {
        "baseColorFactor": [
          0.00807583,
          0.00807583,
          0.00807583,
          1.0
        ],
        "roughnessFactor": 0.5
      }
    },
    {
      "doubleSided": true,
      "name": "Material.005",
      "pbrMetallicRoughness": {
        "metallicFactor": 0.0,
        "roughnessFactor": 0.5
      }
    },
    {
      "doubleSided": true,
      "emissiveFactor": [
        0.0,
        0.9598773643014524,
        1.0
      ],
      "extensions": {
        "KHR_materials_clearcoat": {
          "clearcoatFactor": 0.411765,
          "clearcoatRoughnessFactor": 0.382941
        }
      },
      "name": "Material.008",
      "pbrMetallicRoughness": {
        "baseColorTexture": {
          "index": 2
        }
      }
    }
  ],
  "meshes": [
    {
      "name": "Object_0",
      "primitives": [
        {
          "attributes": {
            "NORMAL": 1,
            "POSITION": 0,
            "TANGENT": 2,
            "TEXCOORD_0": 3,
            "TEXCOORD_1": 4
          },
          "indices": 5,
          "material": 0,
          "mode": 4
        }
      ]
    },
    {
      "name": "Object_1",
      "primitives": [
        {
          "attributes": {
            "NORMAL": 7,
            "POSITION": 6,
            "TEXCOORD_0": 8
          },
          "indices": 9,
          "material": 1,
          "mode": 4
        }
      ]
    },
    {
      "name": "Object_2",
      "primitives": [
        {
          "attributes": {
            "NORMAL": 11,
            "POSITION": 10,
            "TEXCOORD_0": 12
          },
          "indices": 13,
          "material": 2,
          "mode": 4
        }
      ]
    },
    {
      "name": "Object_3",
      "primitives": [
        {
          "attributes": {
            "NORMAL": 15,
            "POSITION": 14,
            "TEXCOORD_0": 16
          },
          "indices": 17,
          "material": 3,
          "mode": 4
        }
      ]
    },
    {
      "name": "Object_4",
      "primitives": [
        {
          "attributes": {
            "NORMAL": 19,
            "POSITION": 18,
            "TEXCOORD_0": 20
          },
          "indices": 21,
          "material": 4,
          "mode": 4
        }
      ]
    }
  ],
  "nodes": [
    {
      "children": [
        1
      ],
      "matrix": [
        1.0,
        0.0,
        0.0,
        0.0,
        0.0,
        2.220446049250313e-16,
        -1.0,
        0.0,
        0.0,
        1.0,
        2.220446049250313e-16,
        0.0,
        0.0,
        0.0,
        0.0,
        1.0
      ],
      "name": "Sketchfab_model"
    },
    {
      "children": [
        2
      ],
      "name": "root"
    },
    {
      "children": [
        3,
        8
      ],
      "matrix": [
        1.0,
        0.0,
        0.0,
        0.0,
        0.0,
        2.220446049250313e-16,
        1.0,
        0.0,
        0.0,
        -1.0,
        2.220446049250313e-16,
        0.0,
        0.0,
        0.0,
        0.0,
        1.0
      ],
      "name": "GLTF_SceneRootNode"
    },
    {
      "children": [
        4,
        5,
        6,
        7
      ],
      "matrix": [
        -0.23510604285959785,
        -0.21648786002063208,
        0.4753608548265943,
        0.0,
        -0.23893739012420914,
        -0.4189820598678147,
        -0.3089866410323214,
        0.0,
        0.4644823564339282,
        -0.3251104846040687,
        0.08166456140196439,
        0.0,
        4.02884578704834,
        1.908522129058838,
        0.489039808511734,
        1.0
      ],
      "name": "Plane.001_1"
    },
    {
      "mesh": 0,
      "name": "Object_4"
    },
    {
      "mesh": 1,
      "name": "Object_5"
    },
    {
      "mesh": 2,
      "name": "Object_6"
    },
    {
      "mesh": 3,
      "name": "Object_7"
    },
    {
      "children": [
        9
      ],
      "matrix": [
        -0.23510604285959785,
        -0.21648786002063208,
        0.4753608548265943,
        0.0,
        -0.23893739012420914,
        -0.4189820598678147,
        -0.3089866410323214,
        0.0,
        0.4644823564339282,
        -0.3251104846040687,
        0.08166456140196439,
        0.0,
        4.02884578704834,
        1.908522129058838,
        0.489039808511734,
        1.0
      ],
      "name": "Plane.002_2"
    },
    {
      "mesh": 4,
      "name": "Object_9"
    }
  ],
  "samplers": [
    {
      "magFilter": 9729,
      "minFilter": 9987,
      "wrapS": 10497,
      "wrapT": 10497
    }
  ],
  "scene": 0,
  "scenes": [
    {
      "name": "Sketchfab_Scene",
      "nodes": [
        0
      ]
    }
  ],
  "textures": [
    {
      "sampler": 0,
      "source": 0
    },
    {
      "sampler": 0,
      "source": 1
    },
    {
      "sampler": 0,
      "source": 2
    }
  ]
}
